<svg width="161" height="48" viewBox="0 0 161 48" fill="none" xmlns="http://www.w3.org/2000/svg">
<g clip-path="url(#clip0_1135_3254)">
<path d="M6.65278 20.2923C4.51848 20.2923 2.87727 19.7704 1.72555 18.7267C0.57382 17.6829 -0.000244141 16.2235 -0.000244141 14.3483C-0.000244141 13.6465 0.0951332 12.8889 0.285888 12.0737C0.476643 11.2585 0.73938 10.4541 1.0741 9.66224L2.81249 10.1877C2.52276 10.8122 2.28701 11.4528 2.10346 12.1079C1.9199 12.7629 1.82992 13.3586 1.82992 13.8912C1.82992 15.034 2.18804 15.9266 2.90427 16.5654C3.6205 17.2061 4.61026 17.5264 5.87716 17.5264H7.45539C8.93283 17.5264 10.0198 17.2187 10.7126 16.5996C11.4054 15.9823 11.7528 15.0034 11.7528 13.6609C11.7528 13.2344 11.715 12.7431 11.6394 12.187C11.5638 11.631 11.4486 10.9867 11.2957 10.2561L10.862 8.24418L12.8505 7.85547L13.2158 9.844C13.3688 10.652 13.4822 11.3682 13.5595 11.9927C13.6351 12.6171 13.6747 13.1732 13.6747 13.6609C13.6747 15.932 13.1114 17.6056 11.9831 18.6799C10.8548 19.7542 9.0804 20.2923 6.65637 20.2923H6.65278ZM6.74455 7.85367C6.39364 7.85367 6.1165 7.7475 5.90955 7.53335C5.7044 7.3192 5.60183 6.99168 5.60183 6.55078C5.60183 6.10989 5.7044 5.76257 5.90955 5.55562C6.1147 5.35047 6.39364 5.24609 6.74455 5.24609H7.08827C7.43919 5.24609 7.71992 5.34867 7.93407 5.55562C8.14642 5.76077 8.25439 6.09369 8.25439 6.55078C8.25439 7.00788 8.14822 7.321 7.93407 7.53335C7.71992 7.7475 7.43919 7.85367 7.08827 7.85367H6.74455Z" fill="white"/>
<path d="M15.226 19.5071H16.5523C18.1521 19.5071 19.4029 19.2515 20.3008 18.7404C21.2006 18.2294 21.7945 17.5167 22.0842 16.6025H19.3399C18.1054 16.6025 17.148 16.2678 16.4713 15.5966C15.7929 14.9253 15.4546 13.9734 15.4546 12.7389C15.4546 12.0064 15.5644 11.3208 15.7857 10.682C16.0071 10.0413 16.3112 9.48883 16.6999 9.02455C17.0886 8.56026 17.5493 8.18954 18.0838 7.91601C18.6164 7.64247 19.2031 7.50391 19.8437 7.50391C21.1844 7.50391 22.2336 8.07617 22.9876 9.2189C23.7416 10.3616 24.1339 11.9632 24.1645 14.0202H25.2389V16.0555L24.69 16.6043H23.9126C23.5311 18.3571 22.7357 19.7104 21.5227 20.6624C20.3116 21.6144 18.6848 22.0912 16.6423 22.0912H15.2242V19.5071H15.226ZM17.3531 12.4095C17.3531 12.9764 17.5277 13.3867 17.8786 13.6404C18.2295 13.8942 18.7478 14.0202 19.4334 14.0202H22.2678V13.5829C22.2678 12.5247 22.023 11.6789 21.5353 11.0419C21.0477 10.4048 20.416 10.0881 19.6386 10.0881C18.9368 10.0881 18.3807 10.3022 17.9704 10.7323C17.5583 11.1624 17.3531 11.7203 17.3531 12.4113V12.4095Z" fill="white"/>
<path d="M24.6917 14.5684L25.2406 14.0195H27.6862V16.0548L27.1373 16.6037H24.6917V14.5684Z" fill="white"/>
<path d="M27.1375 14.5684L27.6863 14.0195H30.1319V16.0548L29.5831 16.6037H27.1375V14.5684Z" fill="white"/>
<path d="M29.5831 14.5684L30.1319 14.0195H32.5776V16.0548L32.0287 16.6037H29.5831V14.5684Z" fill="white"/>
<path d="M32.0305 14.5684L32.5793 14.0195H35.0249V16.0548L34.4761 16.6037H32.0305V14.5684Z" fill="white"/>
<path d="M34.476 14.5684L35.0249 14.0195H37.4705V16.0548L36.9216 16.6037H34.476V14.5684Z" fill="white"/>
<path d="M36.9217 14.5684L37.4706 14.0195H39.9162V16.0548L39.3673 16.6037H36.9217V14.5684Z" fill="white"/>
<path d="M39.3691 14.5684L39.9179 14.0195H42.3636V16.0548L41.8147 16.6037H39.3691V14.5684Z" fill="white"/>
<path d="M41.8146 14.5684L42.3635 14.0195H44.8091V16.0548L44.2603 16.6037H41.8146V14.5684Z" fill="white"/>
<path d="M44.2621 14.5697L44.8109 14.0208H45.5649C46.83 14.0208 47.4617 13.4198 47.4617 12.2141V8.73909H49.4502V12.2141C49.4502 13.418 50.0441 14.0208 51.2336 14.0208H52.1028V16.0561L51.5305 16.605C50.4022 16.605 49.5294 16.3963 48.9121 15.977C48.2949 15.5577 47.8864 14.899 47.6884 13.9992H47.5517C47.3681 14.944 47.0298 15.6153 46.5349 16.0112C46.04 16.4071 45.2806 16.605 44.2603 16.605V14.5697H44.2621ZM46.6609 6.40684C46.31 6.40684 46.0328 6.30067 45.8259 6.08652C45.6207 5.87237 45.5182 5.54485 45.5182 5.10395C45.5182 4.66306 45.6207 4.31574 45.8259 4.10879C46.031 3.90184 46.31 3.79926 46.6609 3.79926H47.0046C47.3555 3.79926 47.6363 3.90184 47.8504 4.10879C48.0646 4.31394 48.1707 4.64686 48.1707 5.10395C48.1707 5.56104 48.0646 5.87417 47.8504 6.08652C47.6363 6.30067 47.3555 6.40684 47.0046 6.40684H46.6609ZM48.2859 3.38896C47.9512 3.38896 47.6758 3.28638 47.4635 3.08123C47.2493 2.87608 47.1432 2.55216 47.1432 2.10946C47.1432 1.66677 47.2493 1.34824 47.4635 1.14849C47.6758 0.950539 47.9512 0.851562 48.2859 0.851562H48.6296C48.9643 0.851562 49.2361 0.950539 49.4412 1.14849C49.6464 1.34644 49.749 1.66677 49.749 2.10946C49.749 2.55216 49.6464 2.87608 49.4412 3.08123C49.2361 3.28638 48.9643 3.38896 48.6296 3.38896H48.2859ZM49.9091 6.40684C49.5582 6.40684 49.2757 6.30067 49.0633 6.08652C48.8492 5.87237 48.743 5.54485 48.743 5.10395C48.743 4.66306 48.8492 4.31574 49.0633 4.10879C49.2775 3.90364 49.5582 3.79926 49.9091 3.79926H50.2294C50.5804 3.79926 50.8611 3.90184 51.0752 4.10879C51.2894 4.31394 51.3956 4.64686 51.3956 5.10395C51.3956 5.56104 51.2894 5.87417 51.0752 6.08652C50.8611 6.30067 50.5804 6.40684 50.2294 6.40684H49.9091Z" fill="white"/>
<path d="M51.554 14.5688L52.1029 14.0199H52.56C52.8803 14.0199 53.161 13.9965 53.4058 13.9515C53.6487 13.9065 53.8629 13.822 54.0464 13.6996C54.23 13.5772 54.3973 13.417 54.5485 13.2191C54.7015 13.0211 54.8526 12.7692 55.0056 12.4651L55.9432 10.5683L57.6582 11.4375L56.6288 13.4728L56.789 13.5646C57.2461 13.8238 57.6834 14.0109 58.1027 14.1243C58.522 14.2395 58.9521 14.2952 59.3948 14.2952C60.0804 14.2952 60.5843 14.1405 60.9046 13.8292C61.2249 13.5178 61.3851 12.978 61.3851 12.2041V10.5683H63.3736V12.2239C63.3736 12.9762 63.4762 13.5088 63.6813 13.8238C63.8865 14.1387 64.2482 14.2952 64.7665 14.2952H65.1786C65.6663 14.2952 66.0208 14.1387 66.2421 13.8238C66.4635 13.5106 66.5732 12.978 66.5732 12.2257V9.65234H68.5618V12.2131C68.5618 13.4171 69.1556 14.0199 70.3452 14.0199H71.2143V16.0552L70.6421 16.6041C69.5749 16.6041 68.7489 16.4097 68.1623 16.021C67.5756 15.6323 67.1761 15.0259 66.962 14.2035H66.8486C66.7568 15.1644 66.5085 15.8501 66.1054 16.2604C65.7005 16.6725 65.1336 16.8776 64.403 16.8776C62.8481 16.8776 61.9268 15.9868 61.637 14.2035H61.5003C61.2411 15.9868 60.3953 16.8776 58.9629 16.8776C58.5202 16.8776 58.0667 16.793 57.6024 16.6257C57.1381 16.4583 56.5856 16.183 55.945 15.8033L55.3277 15.438C54.8706 15.9113 54.3523 16.2226 53.7729 16.3755C53.1934 16.5285 52.4538 16.6041 51.5558 16.6041V14.5688H51.554Z" fill="white"/>
<path d="M70.6673 14.5673L71.2162 14.0184H71.9702C73.2353 14.0184 73.867 13.4174 73.867 12.2117V8.7367H75.8555V12.2117C75.8555 13.4156 76.4494 14.0184 77.6389 14.0184H78.5081V16.0538L77.9358 16.6026C76.8075 16.6026 75.9347 16.3939 75.3174 15.9746C74.7002 15.5553 74.2917 14.8966 74.0937 13.9969H73.9569C73.7734 14.9416 73.4351 15.6129 72.9402 16.0088C72.4453 16.4047 71.6859 16.6026 70.6655 16.6026V14.5673H70.6673ZM74.6678 6.40446C74.3169 6.40446 74.0397 6.29828 73.8328 6.08413C73.6276 5.86998 73.5232 5.54246 73.5232 5.10157C73.5232 4.66067 73.6258 4.31335 73.8328 4.1064C74.0379 3.90125 74.3169 3.79688 74.6678 3.79688H75.0115C75.3624 3.79688 75.6431 3.89945 75.8573 4.1064C76.0696 4.31155 76.1776 4.64447 76.1776 5.10157C76.1776 5.55866 76.0714 5.87178 75.8573 6.08413C75.6431 6.29828 75.3624 6.40446 75.0115 6.40446H74.6678Z" fill="white"/>
<path d="M77.961 14.5735L78.5099 14.0247H81.4594L81.5044 13.9095C80.1331 12.7362 79.4474 11.3559 79.4474 9.77229C79.4474 9.13164 79.55 8.53058 79.7552 7.96552C79.9603 7.40225 80.2537 6.90557 80.6352 6.47907C81.0167 6.05257 81.4702 5.71785 81.9956 5.47311C82.5211 5.23017 83.1042 5.1078 83.7448 5.1078C84.3855 5.1078 84.9685 5.23017 85.494 5.47311C86.0195 5.71785 86.4694 6.04897 86.8437 6.46827C87.2162 6.88757 87.5095 7.38246 87.7237 7.95472C87.9378 8.52698 88.044 9.13164 88.044 9.77229C88.044 11.3415 87.3584 12.7218 85.9871 13.9095L86.0321 14.0247H89.005V16.06L88.4561 16.6089H88.1826C87.3746 16.6089 86.6007 16.5135 85.8629 16.3227C85.1233 16.132 84.4179 15.8171 83.7484 15.3744C83.0934 15.8171 82.3915 16.132 81.6447 16.3227C80.8979 16.5135 80.1277 16.6089 79.3359 16.6089H77.9646V14.5735H77.961ZM83.7448 13.4974C84.5222 13.0709 85.1233 12.5832 85.5516 12.0343C85.9781 11.4855 86.1922 10.8448 86.1922 10.1142C86.1922 9.38358 85.9745 8.79692 85.5408 8.35422C85.1071 7.91153 84.5456 7.69198 83.86 7.69198H83.6081C82.9224 7.69198 82.3628 7.91333 81.9273 8.35422C81.4936 8.79692 81.2758 9.38358 81.2758 10.1142C81.2758 10.8448 81.4936 11.4855 81.9273 12.0343C82.361 12.5832 82.9674 13.0709 83.7448 13.4974ZM83.5613 2.77555C83.2104 2.77555 82.9332 2.66937 82.7263 2.45523C82.5211 2.24108 82.4185 1.91355 82.4185 1.47266C82.4185 1.03176 82.5211 0.684446 82.7263 0.477495C82.9314 0.272344 83.2104 0.167969 83.5613 0.167969H83.905C84.2559 0.167969 84.5366 0.270544 84.7508 0.477495C84.9649 0.682647 85.0711 1.01557 85.0711 1.47266C85.0711 1.92975 84.9649 2.24288 84.7508 2.45523C84.5366 2.66937 84.2559 2.77555 83.905 2.77555H83.5613Z" fill="white"/>
<path d="M88.4541 14.569L89.003 14.0202H89.4835C90.52 14.0202 91.2507 13.9032 91.679 13.6656C92.1055 13.4299 92.3196 12.9998 92.3196 12.3735C92.3196 12.1144 92.2998 11.7869 92.262 11.391C92.2242 10.9951 92.1505 10.4696 92.0443 9.81276L91.679 7.82423L93.6675 7.50391L93.9644 9.49243C94.148 10.7125 94.238 11.6717 94.238 12.3735C94.238 13.806 93.8493 14.8696 93.0718 15.5624C92.2944 16.2552 91.0977 16.6025 89.4817 16.6025H88.4523V14.5672L88.4541 14.569ZM90.5344 21.3354C90.1835 21.3354 89.9064 21.2292 89.6994 21.0151C89.4943 20.8009 89.3917 20.4734 89.3917 20.0325C89.3917 19.5916 89.4943 19.2443 89.6994 19.0374C89.9046 18.8322 90.1835 18.7278 90.5344 18.7278H90.8782C91.2291 18.7278 91.5098 18.8304 91.724 19.0374C91.9381 19.2425 92.0443 19.5754 92.0443 20.0325C92.0443 20.4896 91.9381 20.8027 91.724 21.0151C91.5098 21.2292 91.2291 21.3354 90.8782 21.3354H90.5344ZM93.7575 21.3354C93.4066 21.3354 93.1294 21.2292 92.9225 21.0151C92.7173 20.8009 92.6147 20.4734 92.6147 20.0325C92.6147 19.5916 92.7173 19.2443 92.9225 19.0374C93.1276 18.8322 93.4066 18.7278 93.7575 18.7278H94.1012C94.4521 18.7278 94.7328 18.8304 94.947 19.0374C95.1611 19.2425 95.2673 19.5754 95.2673 20.0325C95.2673 20.4896 95.1611 20.8027 94.947 21.0151C94.7328 21.2292 94.4521 21.3354 94.1012 21.3354H93.7575Z" fill="white"/>
<path d="M98.3087 16.6068C97.5313 16.6068 96.9213 16.4016 96.4804 15.9895C96.0377 15.5774 95.8181 14.9386 95.8181 14.0694V12.4012H97.8534V14.0244H101.512C102.228 14.0244 102.719 13.8804 102.986 13.5907C103.252 13.301 103.385 12.9356 103.385 12.4929C103.385 12.0503 103.211 11.5482 102.86 11.0299C102.509 10.5116 101.908 9.84038 101.053 9.01797L98.7208 6.61734L100.573 4.74219L102.676 7.02764C103.178 7.56212 103.601 8.0606 103.945 8.52489C104.289 8.98918 104.566 9.43907 104.78 9.87457C104.994 10.3083 105.149 10.7438 105.248 11.1775C105.347 11.6112 105.397 12.0808 105.397 12.5829C105.397 13.848 105.039 14.8342 104.323 15.5432C103.607 16.2523 102.594 16.6068 101.282 16.6068H98.3087Z" fill="white"/>
<path d="M1.67175 27.6484H6.20847C7.02908 27.6484 7.7723 27.7834 8.43994 28.0533C9.10759 28.3233 9.67625 28.7246 10.1477 29.2573C10.6192 29.7899 10.9827 30.4576 11.2401 31.2584C11.4974 32.061 11.6252 32.995 11.6252 34.0603C11.6252 35.1257 11.4974 36.0596 11.2401 36.8623C10.9827 37.6649 10.6174 38.3325 10.1477 38.8652C9.67625 39.3978 9.10579 39.7992 8.43994 40.0691C7.7723 40.339 7.02908 40.474 6.20847 40.474H1.67175V27.652V27.6484ZM6.20847 38.633C7.16405 38.633 7.93426 38.3325 8.52273 37.7332C9.11119 37.134 9.40452 36.2522 9.40452 35.0879V33.031C9.40452 31.8684 9.11119 30.9866 8.52273 30.3856C7.93426 29.7863 7.16405 29.4858 6.20847 29.4858H3.74666V38.633H6.20847Z" fill="white"/>
<path d="M17.8175 40.6944C17.1318 40.6944 16.52 40.5774 15.9801 40.3452C15.4402 40.1131 14.9813 39.7784 14.6016 39.3447C14.2219 38.9092 13.9304 38.3837 13.7288 37.7646C13.5273 37.1474 13.4265 36.4582 13.4265 35.6987C13.4265 34.9393 13.5273 34.2501 13.7288 33.6328C13.9304 33.0156 14.2219 32.4883 14.6016 32.0528C14.9813 31.6173 15.4402 31.2844 15.9801 31.0522C16.5182 30.8201 17.13 30.7031 17.8175 30.7031C18.5049 30.7031 19.1312 30.8255 19.6638 31.0702C20.1965 31.315 20.641 31.6551 20.9955 32.0906C21.35 32.5261 21.6164 33.03 21.7945 33.6058C21.9727 34.1817 22.0609 34.7989 22.0609 35.4612V36.2134H15.5032V36.5229C15.5032 37.2536 15.721 37.8528 16.1547 38.3207C16.5884 38.7886 17.211 39.0225 18.019 39.0225C18.6075 39.0225 19.1024 38.8948 19.5073 38.6392C19.9122 38.3837 20.2541 38.0364 20.5366 37.5991L21.7117 38.7598C21.3572 39.3501 20.8426 39.8198 20.1695 40.1689C19.4965 40.518 18.7119 40.6944 17.8193 40.6944H17.8175ZM17.8175 32.2634C17.4738 32.2634 17.1588 32.3245 16.8709 32.4469C16.583 32.5693 16.3382 32.7402 16.1367 32.9616C15.9351 33.1829 15.7786 33.4457 15.6688 33.7516C15.559 34.0575 15.5032 34.394 15.5032 34.7612V34.8889H19.9482V34.7054C19.9482 33.9711 19.7574 33.3791 19.3795 32.9328C18.9998 32.4865 18.4797 32.2616 17.8175 32.2616V32.2634Z" fill="white"/>
<path d="M24.7782 32.5569H23.3278V30.9229H24.7782V29.3428C24.7782 28.5708 24.9798 27.968 25.3847 27.5343C25.7896 27.0988 26.3942 26.8828 27.2022 26.8828H28.7823V28.5168H26.7793V30.9229H28.7823V32.5569H26.7793V40.4732H24.7782V32.5569Z" fill="white"/>
<path d="M34.2008 40.6944C33.5151 40.6944 32.9033 40.5774 32.3634 40.3452C31.8235 40.1131 31.3646 39.7784 30.9849 39.3447C30.6052 38.9092 30.3137 38.3837 30.1121 37.7646C29.9106 37.1474 29.8098 36.4582 29.8098 35.6987C29.8098 34.9393 29.9106 34.2501 30.1121 33.6328C30.3137 33.0156 30.6052 32.4883 30.9849 32.0528C31.3646 31.6173 31.8235 31.2844 32.3634 31.0522C32.9015 30.8201 33.5133 30.7031 34.2008 30.7031C34.8882 30.7031 35.5145 30.8255 36.0471 31.0702C36.5798 31.315 37.0243 31.6551 37.3788 32.0906C37.7333 32.5261 37.9997 33.03 38.1778 33.6058C38.356 34.1817 38.4442 34.7989 38.4442 35.4612V36.2134H31.8865V36.5229C31.8865 37.2536 32.1043 37.8528 32.538 38.3207C32.9717 38.7886 33.5943 39.0225 34.4023 39.0225C34.9908 39.0225 35.4857 38.8948 35.8906 38.6392C36.2955 38.3837 36.6374 38.0364 36.9199 37.5991L38.095 38.7598C37.7405 39.3501 37.2259 39.8198 36.5528 40.1689C35.8798 40.518 35.0952 40.6944 34.2026 40.6944H34.2008ZM34.2008 32.2634C33.8571 32.2634 33.5421 32.3245 33.2542 32.4469C32.9663 32.5693 32.7215 32.7402 32.52 32.9616C32.3184 33.1829 32.1619 33.4457 32.0521 33.7516C31.9423 34.0575 31.8865 34.394 31.8865 34.7612V34.8889H36.3315V34.7054C36.3315 33.9711 36.1407 33.3791 35.7628 32.9328C35.3831 32.4865 34.863 32.2616 34.2008 32.2616V32.2634Z" fill="white"/>
<path d="M40.6667 40.4748V30.9227H42.6679V32.5027H42.7597C42.9684 31.988 43.2833 31.5597 43.7062 31.2178C44.1291 30.8759 44.7068 30.7031 45.4428 30.7031C46.4218 30.7031 47.1848 31.0252 47.7301 31.6677C48.2753 32.3101 48.5471 33.2261 48.5471 34.4138V40.4748H46.5442V34.6712C46.5442 33.1775 45.9449 32.4307 44.7446 32.4307C44.4872 32.4307 44.2335 32.4649 43.9816 32.5315C43.7296 32.5999 43.5065 32.7006 43.3103 32.8338C43.1142 32.9688 42.9576 33.1397 42.8424 33.3485C42.7255 33.5572 42.6679 33.802 42.6679 34.0827V40.4748H40.6667Z" fill="white"/>
<path d="M54.3524 40.6883C53.4454 40.6883 52.6878 40.53 52.0742 40.2115C51.4623 39.8929 50.9296 39.452 50.4761 38.8888L51.761 37.7136C52.1155 38.1419 52.5115 38.4767 52.9451 38.7142C53.3788 38.9536 53.8845 39.0723 54.4604 39.0723C55.0363 39.0723 55.4861 38.959 55.7741 38.7322C56.062 38.5055 56.206 38.1905 56.206 37.7856C56.206 37.4797 56.1052 37.2188 55.9036 37.0046C55.7021 36.7905 55.3494 36.6519 54.8473 36.5907L53.9655 36.4809C52.9865 36.3586 52.2181 36.0742 51.6603 35.6261C51.1024 35.1798 50.8253 34.5158 50.8253 33.634C50.8253 33.1679 50.9098 32.7558 51.0826 32.3941C51.2535 32.0324 51.4965 31.7265 51.8078 31.4763C52.1209 31.2262 52.4935 31.0318 52.929 30.8969C53.3644 30.7619 53.8449 30.6953 54.3704 30.6953C55.227 30.6953 55.9288 30.8303 56.4741 31.1002C57.0194 31.3702 57.5053 31.7427 57.9354 32.2214L56.7045 33.3965C56.4597 33.1031 56.1376 32.8494 55.7399 32.6335C55.3422 32.4193 54.8851 32.3113 54.3722 32.3113C53.8215 32.3113 53.413 32.4211 53.1503 32.6425C52.8876 32.862 52.7562 33.1499 52.7562 33.5062C52.7562 33.8626 52.8732 34.1487 53.1053 34.3322C53.3375 34.5158 53.7118 34.6508 54.2264 34.7372L55.1082 34.8469C56.161 35.0053 56.9294 35.3148 57.4135 35.7737C57.8976 36.2326 58.1387 36.8481 58.1387 37.6201C58.1387 38.0862 58.0505 38.5055 57.8724 38.878C57.6942 39.2523 57.4405 39.5726 57.1094 39.8425C56.7782 40.1125 56.3805 40.3194 55.9162 40.467C55.452 40.6146 54.9301 40.6865 54.3542 40.6865L54.3524 40.6883Z" fill="white"/>
<path d="M64.1422 40.6944C63.4565 40.6944 62.8447 40.5774 62.3048 40.3452C61.7649 40.1131 61.3061 39.7784 60.9263 39.3447C60.5466 38.9092 60.2551 38.3837 60.0535 37.7646C59.852 37.1474 59.7512 36.4582 59.7512 35.6987C59.7512 34.9393 59.852 34.2501 60.0535 33.6328C60.2551 33.0156 60.5466 32.4883 60.9263 32.0528C61.3061 31.6173 61.7649 31.2844 62.3048 31.0522C62.8429 30.8201 63.4547 30.7031 64.1422 30.7031C64.8296 30.7031 65.4559 30.8255 65.9885 31.0702C66.5212 31.315 66.9657 31.6551 67.3202 32.0906C67.6747 32.5261 67.9411 33.03 68.1192 33.6058C68.2974 34.1817 68.3856 34.7989 68.3856 35.4612V36.2134H61.8279V36.5229C61.8279 37.2536 62.0457 37.8528 62.4794 38.3207C62.9131 38.7886 63.5357 39.0225 64.3437 39.0225C64.9322 39.0225 65.4271 38.8948 65.832 38.6392C66.2369 38.3837 66.5788 38.0364 66.8613 37.5991L68.0365 38.7598C67.6819 39.3501 67.1673 39.8198 66.4942 40.1689C65.8212 40.518 65.0366 40.6944 64.144 40.6944H64.1422ZM64.1422 32.2634C63.7985 32.2634 63.4835 32.3245 63.1956 32.4469C62.9077 32.5693 62.6629 32.7402 62.4614 32.9616C62.2598 33.1829 62.1033 33.4457 61.9935 33.7516C61.8837 34.0575 61.8279 34.394 61.8279 34.7612V34.8889H66.2729V34.7054C66.2729 33.9711 66.0821 33.3791 65.7042 32.9328C65.3245 32.4865 64.8044 32.2616 64.1422 32.2616V32.2634Z" fill="white"/>
<path d="M73.2534 40.4722C72.5552 40.4722 72.0297 40.2923 71.6734 39.9305C71.3189 39.5688 71.1407 39.0577 71.1407 38.3973V32.5559H69.6525V30.9219H70.4605C70.7916 30.9219 71.0201 30.8481 71.1497 30.7005C71.2775 30.553 71.3423 30.3154 71.3423 29.9843V28.3125H73.1418V30.9201H75.1448V32.5541H73.1418V38.8364H74.9972V40.4704H73.2516L73.2534 40.4722Z" fill="white"/>
<path d="M77.3113 26.8768H79.3125V32.4969H79.4042C79.613 31.9822 79.9279 31.5539 80.3508 31.212C80.7737 30.87 81.3514 30.6973 82.0874 30.6973C83.0664 30.6973 83.8294 31.0194 84.3747 31.6619C84.9199 32.3043 85.1917 33.2203 85.1917 34.408V40.469H83.1887V34.6456C83.1887 33.1645 82.5895 32.4231 81.3892 32.4231C81.1318 32.4231 80.8781 32.4573 80.6262 32.5239C80.3742 32.5922 80.1511 32.693 79.9549 32.8262C79.7588 32.9612 79.6022 33.1321 79.487 33.3409C79.3701 33.5496 79.3125 33.789 79.3125 34.0571V40.4672H77.3113V26.875V26.8768Z" fill="white"/>
<path d="M91.7132 40.6944C91.0528 40.6944 90.4481 40.5774 89.9047 40.3452C89.3594 40.1131 88.8969 39.7784 88.5172 39.3447C88.1375 38.9092 87.8441 38.3837 87.6354 37.7646C87.4266 37.1474 87.3223 36.4582 87.3223 35.6987C87.3223 34.9393 87.4266 34.2501 87.6354 33.6328C87.8441 33.0156 88.1375 32.4883 88.5172 32.0528C88.8969 31.6173 89.3594 31.2844 89.9047 31.0522C90.4499 30.8201 91.0528 30.7031 91.7132 30.7031C92.3737 30.7031 92.9765 30.8201 93.5218 31.0522C94.0671 31.2844 94.5296 31.6191 94.9093 32.0528C95.289 32.4883 95.5823 33.0138 95.7911 33.6328C95.9998 34.2519 96.1042 34.9393 96.1042 35.6987C96.1042 36.4582 95.9998 37.1474 95.7911 37.7646C95.5823 38.3837 95.289 38.9092 94.9093 39.3447C94.5296 39.7802 94.0671 40.1131 93.5218 40.3452C92.9765 40.5774 92.3737 40.6944 91.7132 40.6944ZM91.7132 39.0225C92.3989 39.0225 92.9495 38.812 93.367 38.3927C93.7827 37.9734 93.9915 37.3417 93.9915 36.5013V34.8943C93.9915 34.0539 93.7827 33.4241 93.367 33.0048C92.9513 32.5855 92.3989 32.3749 91.7132 32.3749C91.0276 32.3749 90.4769 32.5855 90.0594 33.0048C89.6437 33.4241 89.435 34.0557 89.435 34.8943V36.5013C89.435 37.3417 89.6437 37.9716 90.0594 38.3927C90.4751 38.812 91.0258 39.0225 91.7132 39.0225Z" fill="white"/>
<path d="M98.3249 40.4748V30.9227H100.326V32.5027H100.418C100.627 31.988 100.941 31.5597 101.364 31.2178C101.787 30.8759 102.365 30.7031 103.101 30.7031C104.08 30.7031 104.843 31.0252 105.388 31.6677C105.933 32.3101 106.205 33.2261 106.205 34.4138V40.4748H104.202V34.6712C104.202 33.1775 103.603 32.4307 102.403 32.4307C102.145 32.4307 101.892 32.4649 101.64 32.5315C101.388 32.5999 101.165 32.7006 100.968 32.8338C100.772 32.9688 100.616 33.1397 100.501 33.3485C100.384 33.5572 100.326 33.802 100.326 34.0827V40.4748H98.3249Z" fill="white"/>
<mask id="mask0_1135_3254" style="mask-type:luminance" maskUnits="userSpaceOnUse" x="118" y="0" width="43" height="48">
<path d="M138.716 39.1443V36.929C144.862 36.929 149.845 31.9478 149.845 25.8005H152.058C152.058 33.1589 146.075 39.1443 138.718 39.1443H138.716ZM156.485 25.8005H154.27C154.27 34.379 147.295 41.3578 138.716 41.3578V43.5713C148.515 43.5713 156.487 35.6009 156.487 25.8005H156.485ZM125.378 25.8005H123.163C123.163 34.379 130.14 41.3578 138.716 41.3578V39.1443C131.363 39.1443 125.378 33.1589 125.378 25.8005ZM135.517 19.1942L139.823 23.5006L144.129 19.1942L139.823 14.8879L135.517 19.1942ZM160.912 25.8005V0H120.958H118.734V25.8005C118.734 29.1009 119.537 32.216 120.958 34.9603C124.284 41.3848 130.994 45.7865 138.715 45.7865V43.5713C138.544 43.5713 138.374 43.5695 138.202 43.5641C137.899 43.5551 137.597 43.5389 137.296 43.5137C137.221 43.5083 137.147 43.5011 137.072 43.4939C136.699 43.4615 136.33 43.4129 135.967 43.3571C135.868 43.3427 135.765 43.3265 135.666 43.3067C134.842 43.1646 134.039 42.9648 133.258 42.7111C133.215 42.6985 133.174 42.6859 133.132 42.6715C132.855 42.5797 132.582 42.4825 132.313 42.3763C132.308 42.3763 132.301 42.3709 132.297 42.3691C132.177 42.3242 132.056 42.2756 131.937 42.2252C131.831 42.182 131.723 42.1352 131.619 42.0902C131.581 42.0758 131.545 42.0596 131.511 42.0434C131.45 42.0182 131.39 41.9894 131.334 41.9624C131.288 41.9408 131.243 41.9192 131.198 41.8995C131.167 41.8851 131.137 41.8707 131.106 41.8545C131.054 41.8329 131.005 41.8077 130.955 41.7843C130.877 41.7465 130.798 41.7069 130.721 41.6655C130.284 41.4478 129.859 41.2102 129.449 40.9565C129.429 40.9439 129.411 40.9331 129.396 40.9241C129.162 40.7819 128.936 40.6344 128.714 40.4796C128.623 40.4166 128.531 40.3518 128.437 40.2852C128.345 40.2222 128.255 40.1557 128.165 40.0891C128.047 40.0009 127.932 39.9145 127.818 39.8245C127.795 39.8083 127.773 39.7886 127.752 39.7724C127.75 39.7724 127.746 39.767 127.746 39.767C127.721 39.7472 127.694 39.7292 127.671 39.7094C127.654 39.6968 127.64 39.6842 127.626 39.6716C127.575 39.6338 127.528 39.596 127.482 39.5564C127.451 39.533 127.42 39.506 127.392 39.4808C127.323 39.4268 127.257 39.3693 127.19 39.3099C127.152 39.2793 127.113 39.2469 127.075 39.2109C126.974 39.1263 126.872 39.0363 126.773 38.9446C126.737 38.9122 126.699 38.8762 126.661 38.8438C126.38 38.5864 126.109 38.3165 125.846 38.0412C125.792 37.9872 125.741 37.9296 125.689 37.8738C125.646 37.8306 125.605 37.7856 125.567 37.7406C125.47 37.6345 125.376 37.5283 125.283 37.4221C125.265 37.4005 125.247 37.3825 125.23 37.3609C125.223 37.3537 125.218 37.3465 125.212 37.3393C125.121 37.235 125.032 37.1288 124.946 37.0208C124.878 36.9362 124.809 36.848 124.741 36.7635C124.721 36.7401 124.705 36.7185 124.687 36.6951C124.618 36.6051 124.55 36.5151 124.482 36.4234C124.408 36.3262 124.336 36.2272 124.264 36.1282C124.239 36.0958 124.212 36.0598 124.188 36.022C124.12 35.9249 124.052 35.8259 123.985 35.7269C123.908 35.6153 123.834 35.5002 123.758 35.3868C123.733 35.3472 123.706 35.304 123.681 35.2608C123.623 35.1762 123.573 35.0899 123.523 35.0053C123.314 34.6652 123.119 34.3179 122.934 33.9633C122.895 33.8824 122.851 33.8032 122.812 33.7168C122.486 33.0672 122.2 32.3959 121.955 31.7013C121.943 31.6707 121.934 31.6383 121.923 31.6041C121.921 31.5969 121.917 31.5897 121.916 31.5807C121.91 31.5717 121.907 31.5591 121.903 31.5483C121.896 31.5303 121.889 31.5105 121.881 31.4889C121.82 31.3072 121.761 31.1236 121.705 30.9365C121.683 30.8699 121.665 30.8051 121.646 30.7349C121.502 30.2454 121.381 29.7469 121.282 29.2395C121.277 29.2107 121.269 29.1855 121.266 29.1567C121.264 29.1369 121.259 29.1171 121.257 29.0973C121.242 29.0361 121.233 28.9749 121.221 28.9137C121.199 28.7986 121.181 28.6798 121.162 28.561C121.16 28.5394 121.154 28.5178 121.153 28.498C121.145 28.4584 121.14 28.4171 121.133 28.3775C121.126 28.3163 121.117 28.2569 121.109 28.1957C121.102 28.1507 121.095 28.1039 121.09 28.0571C121.077 27.9654 121.066 27.8754 121.057 27.7836C121.052 27.7386 121.045 27.6918 121.043 27.645C121.037 27.6144 121.036 27.5839 121.034 27.5515C121.025 27.4687 121.018 27.3841 121.01 27.2995C121.009 27.2995 121.009 27.2977 121.01 27.2941C121.003 27.2203 120.998 27.1502 120.994 27.0764C120.991 27.0026 120.985 26.927 120.98 26.855C120.978 26.8424 120.978 26.8334 120.978 26.8244C120.973 26.7614 120.971 26.6967 120.969 26.6337C120.967 26.6193 120.967 26.6049 120.967 26.5905C120.965 26.5401 120.962 26.4933 120.96 26.4465V26.4105C120.958 26.3205 120.955 26.2342 120.953 26.1442C120.947 26.029 120.947 25.9156 120.947 25.7987H120.96V2.22607H158.686V26.5311C158.683 26.6967 158.672 26.864 158.663 27.0296C158.65 27.1969 158.639 27.3607 158.625 27.5263C158.611 27.6918 158.596 27.8538 158.578 28.0193C158.566 28.1273 158.553 28.2335 158.539 28.3433C158.531 28.4045 158.524 28.4656 158.515 28.5268C158.494 28.6834 158.47 28.8382 158.447 28.9929C158.427 29.1081 158.409 29.2251 158.387 29.3384C158.375 29.4086 158.362 29.4824 158.348 29.5526C158.323 29.6876 158.296 29.8189 158.267 29.9521C158.235 30.1087 158.199 30.2634 158.163 30.42C158.103 30.6665 158.04 30.9113 157.972 31.1542C157.939 31.2748 157.903 31.3953 157.867 31.5159C157.828 31.6455 157.79 31.7733 157.747 31.9028C157.707 32.0306 157.664 32.1584 157.619 32.2861C157.542 32.5183 157.455 32.7486 157.367 32.979C157.344 33.042 157.317 33.1085 157.292 33.1733C157.263 33.2471 157.232 33.3191 157.202 33.3947C157.142 33.5386 157.081 33.6808 157.02 33.823C157.011 33.8446 157.002 33.868 156.989 33.8896C156.935 34.0119 156.881 34.1379 156.818 34.2603C156.735 34.442 156.647 34.622 156.556 34.8019C156.505 34.9027 156.455 35.0035 156.403 35.0989C156.305 35.286 156.205 35.4714 156.098 35.6567C156.016 35.8025 155.931 35.9465 155.846 36.0886C155.627 36.4539 155.395 36.8139 155.15 37.163C155.089 37.253 155.028 37.3429 154.963 37.4293C154.912 37.4977 154.862 37.5679 154.81 37.6363C154.612 37.9098 154.401 38.1779 154.185 38.4389C154.115 38.5271 154.043 38.6134 153.968 38.698C153.637 39.0921 153.289 39.4736 152.926 39.8389C152.827 39.9397 152.724 40.0423 152.622 40.1413C152.613 40.1503 152.6 40.1629 152.589 40.1737C152.501 40.2564 152.415 40.3392 152.327 40.422C152.181 40.557 152.033 40.6919 151.882 40.8215C151.797 40.8989 151.711 40.9727 151.625 41.0465C151.528 41.1292 151.43 41.2102 151.331 41.2894C151.243 41.3596 151.157 41.4316 151.069 41.4999C151.051 41.5161 151.029 41.5323 151.007 41.5467C150.908 41.6277 150.804 41.7051 150.703 41.7825C150.678 41.8023 150.651 41.8203 150.626 41.8401C150.511 41.9282 150.394 42.011 150.277 42.0956C150.165 42.173 150.055 42.2522 149.942 42.3295C149.759 42.4555 149.571 42.5779 149.381 42.6985C149.292 42.7524 149.206 42.8064 149.121 42.8586C148.852 43.026 148.576 43.1843 148.297 43.3373C148.231 43.3751 148.162 43.4111 148.096 43.4453C148.071 43.4597 148.042 43.4741 148.015 43.4885C147.995 43.5011 147.977 43.5101 147.957 43.5191C147.846 43.5785 147.738 43.6342 147.624 43.69C147.541 43.7332 147.457 43.7728 147.372 43.8124C147.237 43.879 147.102 43.942 146.964 44.0032C146.512 44.2119 146.051 44.4009 145.582 44.57C145.501 44.5988 145.422 44.6294 145.341 44.6582C145.26 44.687 145.18 44.7158 145.099 44.741C145.036 44.7626 144.973 44.7842 144.91 44.804C144.525 44.9299 144.135 45.0451 143.741 45.1459C143.564 45.1909 143.386 45.2359 143.206 45.2754C143.163 45.288 143.123 45.297 143.084 45.3042C142.951 45.3348 142.819 45.3636 142.684 45.3888C142.67 45.3942 142.656 45.396 142.641 45.3978C142.499 45.4266 142.355 45.4554 142.211 45.4788C142.06 45.5076 141.909 45.531 141.756 45.5544C141.716 45.5616 141.673 45.567 141.633 45.5742C141.507 45.594 141.382 45.6102 141.256 45.6264C141.185 45.6336 141.113 45.6426 141.043 45.6498C140.757 45.6858 140.469 45.7127 140.179 45.7325C140.059 45.7415 139.936 45.7487 139.814 45.7559C139.695 45.7631 139.578 45.7685 139.46 45.7703C139.352 45.7757 139.242 45.7775 139.132 45.7829C138.995 45.7847 138.859 45.7883 138.718 45.7883V48.0018C147.489 48.0018 155.087 42.891 158.69 35.4894C160.113 32.5615 160.914 29.2754 160.914 25.8041L160.912 25.8005ZM123.161 4.43955V12.6996H125.385V6.66382H131.421V4.43955H123.161ZM156.485 6.66382V4.43955H148.225V6.66382H154.261V12.6996H156.485V6.66382Z" fill="white"/>
</mask>
<g mask="url(#mask0_1135_3254)">
<path d="M115.635 -0.289337V49.3555H164.013V-0.289337H115.635Z" fill="url(#paint0_linear_1135_3254)"/>
</g>
</g>
<defs>
<linearGradient id="paint0_linear_1135_3254" x1="139.823" y1="49.3555" x2="139.823" y2="-0.289341" gradientUnits="userSpaceOnUse">
<stop offset="0.19" stop-color="#9DFFC4"/>
<stop offset="0.98" stop-color="#16C082"/>
</linearGradient>
<clipPath id="clip0_1135_3254">
<rect width="160.914" height="48" fill="white"/>
</clipPath>
</defs>
</svg>
